<?xml version="1.0" encoding="iso-8859-1"?>
<!-- Uploaded to: SVG Repo, www.svgrepo.com, Generator: SVG Repo Mixer Tools -->
<svg height="800px" width="800px" version="1.1" id="Layer_1" xmlns="http://www.w3.org/2000/svg" xmlns:xlink="http://www.w3.org/1999/xlink" 
	 viewBox="0 0 504.125 504.125" xml:space="preserve">
<style>
  .fire-left {
    animation: flameWave 3s ease-in-out infinite alternate;
    transform-origin: center bottom;
  }
  .fire-right {
    animation: flameWave 2.5s ease-in-out infinite alternate-reverse;
    transform-origin: center bottom;
  }
  .fire-inner-left {
    animation: flameWave 4s ease-in-out infinite alternate;
    transform-origin: center bottom;
  }
  .fire-inner-right {
    animation: flameWave 3.5s ease-in-out infinite alternate-reverse;
    transform-origin: center bottom;
  }
  .fire-sparks circle {
    animation: sparkle 4s ease-in-out infinite;
  }
  .fire-sparks circle:nth-child(odd) {
    animation-delay: 0.5s;
  }
  .fire-sparks circle:nth-child(3n) {
    animation-delay: 1s;
  }
  .fire-sparks circle:nth-child(4n) {
    animation-delay: 1.5s;
  }
  
  /* Анимация для частиц, которые летят вверх и падают под действием гравитации */
  .fire-particle {
    opacity: 0;
    transform-origin: center center;
    animation-timing-function: ease-out;
    animation-iteration-count: infinite;
  }
  
  .fire-particle:nth-child(1) {
    animation: particleFly1 4s infinite;
    animation-delay: 0.2s;
  }
  
  .fire-particle:nth-child(2) {
    animation: particleFly2 5s infinite;
    animation-delay: 1.5s;
  }
  
  .fire-particle:nth-child(3) {
    animation: particleFly3 3.5s infinite;
    animation-delay: 0.7s;
  }
  
  .fire-particle:nth-child(4) {
    animation: particleFly1 4.5s infinite;
    animation-delay: 2s;
  }
  
  .fire-particle:nth-child(5) {
    animation: particleFly2 3.8s infinite;
    animation-delay: 1.2s;
  }
  
  .fire-particle:nth-child(6) {
    animation: particleFly3 4.2s infinite;
    animation-delay: 0.5s;
  }
  
  .fire-particle:nth-child(7) {
    animation: particleFly1 3.2s infinite;
    animation-delay: 1.8s;
  }
  
  .fire-particle:nth-child(8) {
    animation: particleFly2 5.2s infinite;
    animation-delay: 0.3s;
  }
  
  .fire-particle:nth-child(9) {
    animation: particleFly3 4.7s infinite;
    animation-delay: 2.3s;
  }
  
  .fire-particle:nth-child(10) {
    animation: particleFly1 3.9s infinite;
    animation-delay: 0.9s;
  }
  
  @keyframes flameWave {
    0% {
      transform: scaleY(0.95) scaleX(0.95);
      filter: brightness(0.95);
    }
    50% {
      transform: scaleY(1.05) scaleX(1);
      filter: brightness(1.05);
    }
    100% {
      transform: scaleY(0.98) scaleX(1.02);
      filter: brightness(1.1);
    }
  }
  
  @keyframes sparkle {
    0% {
      opacity: 0.3;
      transform: translateY(0px);
    }
    50% {
      opacity: 1;
      transform: translateY(-5px);
    }
    100% {
      opacity: 0.3;
      transform: translateY(0px);
    }
  }
  
  /* Траектории для частиц, учитывающие гравитацию */
  @keyframes particleFly1 {
    0% {
      transform: translate(0, 0) scale(0.2);
      opacity: 0;
    }
    15% {
      transform: translate(20px, -40px) scale(0.7);
      opacity: 1;
    }
    30% {
      transform: translate(30px, -70px) scale(0.9);
      opacity: 0.8;
    }
    45% {
      transform: translate(25px, -55px) scale(0.8);
      opacity: 0.6;
    }
    60% {
      transform: translate(15px, -30px) scale(0.6);
      opacity: 0.4;
    }
    70% {
      transform: translate(10px, -15px) scale(0.4);
      opacity: 0.2;
    }
    100% {
      transform: translate(0, 0) scale(0.1);
      opacity: 0;
    }
  }
  
  @keyframes particleFly2 {
    0% {
      transform: translate(0, 0) scale(0.2);
      opacity: 0;
    }
    15% {
      transform: translate(-30px, -50px) scale(0.6);
      opacity: 1;
    }
    30% {
      transform: translate(-45px, -90px) scale(0.8);
      opacity: 0.8;
    }
    45% {
      transform: translate(-40px, -70px) scale(0.7);
      opacity: 0.6;
    }
    60% {
      transform: translate(-25px, -40px) scale(0.5);
      opacity: 0.4;
    }
    70% {
      transform: translate(-15px, -20px) scale(0.4);
      opacity: 0.2;
    }
    100% {
      transform: translate(0, 0) scale(0.1);
      opacity: 0;
    }
  }
  
  @keyframes particleFly3 {
    0% {
      transform: translate(0, 0) scale(0.1);
      opacity: 0;
    }
    15% {
      transform: translate(5px, -70px) scale(0.5);
      opacity: 1;
    }
    30% {
      transform: translate(10px, -110px) scale(0.7);
      opacity: 0.8;
    }
    45% {
      transform: translate(8px, -85px) scale(0.6);
      opacity: 0.6;
    }
    60% {
      transform: translate(5px, -50px) scale(0.5);
      opacity: 0.4;
    }
    70% {
      transform: translate(3px, -25px) scale(0.3);
      opacity: 0.2;
    }
    100% {
      transform: translate(0, 0) scale(0.1);
      opacity: 0;
    }
  }
</style>
<g class="campfire-base">
	<path style="fill:#5E3E27;" d="M346.505,471.142l-53.784-140.54h-52.027l60.432,157.909c4.781,12.524,18.834,18.794,31.366,13.989
		C345.032,497.719,351.31,483.675,346.505,471.142z"/>
	<path style="fill:#5E3E27;" d="M157.616,471.142l53.768-140.54h52.027l-60.424,157.917c-4.781,12.524-18.834,18.794-31.366,13.989
		C159.073,497.719,152.811,483.675,157.616,471.142z"/>
</g>
<path class="campfire-base" style="fill:#A57450;" d="M252.509,305.113c9.492,9.492,9.492,24.875,0,34.367L95.814,496.175
	c-9.476,9.476-24.891,9.476-34.351,0l0,0c-9.492-9.492-9.492-24.867,0-34.367l156.696-156.696
	C227.626,295.621,243.018,295.621,252.509,305.113L252.509,305.113z"/>
<g class="campfire-base">
	<path style="fill:#825E40;" d="M252.509,305.113L252.509,305.113c9.492,9.492,9.492,24.875,0,34.367L95.814,496.175
		c-9.476,9.476-24.891,9.476-34.351,0l0,0c-9.492-9.492-9.492-24.867,0-34.367"/>
	<path style="fill:#825E40;" d="M251.611,305.113c-9.507,9.492-9.507,24.875,0,34.367l156.68,156.696
		c9.492,9.476,24.891,9.476,34.383,0l0,0c9.476-9.492,9.476-24.867,0-34.367L285.971,305.113
		C276.479,295.621,261.087,295.621,251.611,305.113L251.611,305.113z"/>
</g>
<path class="campfire-base" style="fill:#A57450;" d="M252.06,284.562c13.399,0,24.292,10.878,24.292,24.308v170.126c0,13.399-10.894,24.292-24.292,24.292
	l0,0c-13.414,0-24.308-10.87-24.308-24.292l0.016-170.126C227.752,295.44,238.646,284.562,252.06,284.562L252.06,284.562z"/>
<path class="campfire-base" style="fill:#825E40;" d="M252.06,284.562L252.06,284.562c13.399,0,24.292,10.878,24.292,24.308v170.126
	c0,13.399-10.894,24.292-24.292,24.292l0,0c-13.414,0-24.308-10.87-24.308-24.292"/>
<path class="fire-left" style="fill:#FF7F00;" d="M252.289,91.136c-41.771,8.917-73.862,61.44-73.862,125.086s32.091,85.252,73.862,88.615V91.136z"/>
<path class="fire-right" style="fill:#FF4800;" d="M251.864,91.136c41.74,8.917,73.83,61.44,73.83,125.086s-32.091,85.252-73.83,88.615V91.136z"/>
<path class="fire-inner-left" style="fill:#FFBC00;" d="M252.218,166.723c-27.002,5.734-47.742,39.676-47.742,80.825c0,41.173,20.74,55.123,47.742,57.289
	V166.723z"/>
<path class="fire-inner-right" style="fill:#FF7F00;" d="M251.934,166.723c26.971,5.734,47.695,39.676,47.695,80.825c0,41.173-20.724,55.123-47.695,57.289
	V166.723z"/>
<path class="campfire-base" style="fill:#B73D13;" d="M252.06,284.562c-10.508,0-19.401,6.727-22.772,16.085c7.058,2.143,14.627,3.482,22.567,4.143v0.047
	c0.079-0.016,0.158-0.016,0.213-0.032c0.063,0.016,0.142,0.016,0.213,0.032v-0.047c7.908-0.662,15.478-2.001,22.536-4.143
	C271.461,291.281,262.568,284.562,252.06,284.562z"/>
<g class="fire-sparks">
	<circle style="fill:#FF7F00;" cx="166.1" cy="305.073" r="8.042"/>
	<circle style="fill:#FF7F00;" cx="138.239" cy="207.47" r="17.692"/>
	<circle style="fill:#FF7F00;" cx="153.756" cy="270.202" r="7.507"/>
</g>
<g class="fire-sparks">
	<circle style="fill:#FFBC00;" cx="161.791" cy="234.26" r="2.686"/>
	<circle style="fill:#FFBC00;" cx="146.825" cy="138.87" r="11.264"/>
	<circle style="fill:#FFBC00;" cx="352.097" cy="287.35" r="16.085"/>
	<circle style="fill:#FFBC00;" cx="369.269" cy="209.054" r="8.578"/>
	<circle style="fill:#FFBC00;" cx="260.985" cy="33.241" r="21.449"/>
</g>
<g class="fire-sparks">
	<circle style="fill:#FF7F00;" cx="339.258" cy="129.741" r="10.72"/>
	<circle style="fill:#FF7F00;" cx="314.052" cy="301.82" r="2.678"/>
</g>
<g class="fire-sparks">
	<circle style="fill:#FFBC00;" cx="191.826" cy="86.323" r="5.9"/>
	<circle style="fill:#FFBC00;" cx="322.086" cy="79.344" r="2.143"/>
	<circle style="fill:#FFBC00;" cx="233.628" cy="63.803" r="4.829"/>
	<circle style="fill:#FFBC00;" cx="211.668" cy="9.657" r="9.657"/>
</g>

<!-- Добавляем летающие частицы с реалистичной гравитацией - центрированы над костром -->
<g class="fire-particles">
  <circle class="fire-particle" style="fill:#FFDD33;" cx="252" cy="135" r="3"/>
  <circle class="fire-particle" style="fill:#FFBC00;" cx="252" cy="135" r="2.5"/>
  <circle class="fire-particle" style="fill:#FF9500;" cx="252" cy="135" r="2"/>
  <circle class="fire-particle" style="fill:#FF7F00;" cx="252" cy="135" r="1.8"/>
  <circle class="fire-particle" style="fill:#FFE860;" cx="252" cy="135" r="2.2"/>
  <circle class="fire-particle" style="fill:#FFBC00;" cx="252" cy="135" r="1.5"/>
  <circle class="fire-particle" style="fill:#FFD700;" cx="252" cy="135" r="1.7"/>
  <circle class="fire-particle" style="fill:#FFAA33;" cx="252" cy="135" r="2.3"/>
  <circle class="fire-particle" style="fill:#FF6600;" cx="252" cy="135" r="2.1"/>
  <circle class="fire-particle" style="fill:#FFCC33;" cx="252" cy="135" r="1.9"/>
</g>

<!-- Детали дыма - центрированы над костром -->
<g class="smoke-particles">
  <path class="fire-particle" style="fill:rgba(200,200,200,0.3);" d="M252,105 C257,105 257,110 252,110 C247,110 247,115 242,115 C237,115 237,110 232,110 C227,110 227,105 232,105 C237,105 237,100 242,100 C247,100 247,105 252,105 Z">
    <animate attributeName="opacity" values="0;0.3;0" dur="7s" repeatCount="indefinite" begin="0.5s" />
    <animate attributeName="transform" attributeType="XML" type="translate" values="0,0; -10,-50; -20,-100" dur="7s" repeatCount="indefinite" begin="0.5s" />
    <animate attributeName="d" values="M252,105 C257,105 257,110 252,110 C247,110 247,115 242,115 C237,115 237,110 232,110 C227,110 227,105 232,105 C237,105 237,100 242,100 C247,100 247,105 252,105 Z; M257,105 C262,105 262,112 257,112 C252,112 252,120 242,120 C232,120 232,112 227,112 C222,112 222,105 227,105 C232,105 232,98 242,98 C252,98 252,105 257,105 Z; M252,105 C257,105 257,110 252,110 C247,110 247,115 242,115 C237,115 237,110 232,110 C227,110 227,105 232,105 C237,105 237,100 242,100 C247,100 247,105 252,105 Z" dur="7s" repeatCount="indefinite" begin="0.5s" />
  </path>
  <path class="fire-particle" style="fill:rgba(200,200,200,0.2);" d="M247,105 C249.5,105 249.5,107.5 247,107.5 C244.5,107.5 244.5,110 242,110 C239.5,110 239.5,107.5 237,107.5 C234.5,107.5 234.5,105 237,105 C239.5,105 239.5,102.5 242,102.5 C244.5,102.5 244.5,105 247,105 Z">
    <animate attributeName="opacity" values="0;0.2;0" dur="9s" repeatCount="indefinite" begin="2s" />
    <animate attributeName="transform" attributeType="XML" type="translate" values="0,0; 15,-60; 30,-120" dur="9s" repeatCount="indefinite" begin="2s" />
    <animate attributeName="d" values="M247,105 C249.5,105 249.5,107.5 247,107.5 C244.5,107.5 244.5,110 242,110 C239.5,110 239.5,107.5 237,107.5 C234.5,107.5 234.5,105 237,105 C239.5,105 239.5,102.5 242,102.5 C244.5,102.5 244.5,105 247,105 Z; M249.5,105 C252,105 252,108.5 249.5,108.5 C247,108.5 247,112.5 242,112.5 C237,112.5 237,108.5 234.5,108.5 C232,108.5 232,105 234.5,105 C237,105 237,101.5 242,101.5 C247,101.5 247,105 249.5,105 Z; M247,105 C249.5,105 249.5,107.5 247,107.5 C244.5,107.5 244.5,110 242,110 C239.5,110 239.5,107.5 237,107.5 C234.5,107.5 234.5,105 237,105 C239.5,105 239.5,102.5 242,102.5 C244.5,102.5 244.5,105 247,105 Z" dur="9s" repeatCount="indefinite" begin="2s" />
  </path>
</g>

<!-- Дополнительные искры от костра - центрированы над костром -->
<g class="ember-particles">
  <circle class="fire-particle" style="fill:#FF6600;" cx="252" cy="130" r="1.2">
    <animate attributeName="opacity" values="0;1;0" dur="2s" repeatCount="indefinite" begin="0.2s" />
    <animate attributeName="transform" attributeType="XML" type="translate" values="0,0; 25,-40; 40,-25" dur="2s" repeatCount="indefinite" begin="0.2s" />
    <animate attributeName="r" values="1.2;0.8;1.2" dur="2s" repeatCount="indefinite" begin="0.2s" />
  </circle>
  <circle class="fire-particle" style="fill:#FFAA33;" cx="252" cy="130" r="1.0">
    <animate attributeName="opacity" values="0;1;0" dur="1.7s" repeatCount="indefinite" begin="0.5s" />
    <animate attributeName="transform" attributeType="XML" type="translate" values="0,0; -15,-35; -30,-20" dur="1.7s" repeatCount="indefinite" begin="0.5s" />
    <animate attributeName="r" values="1.0;0.6;1.0" dur="1.7s" repeatCount="indefinite" begin="0.5s" />
  </circle>
  <circle class="fire-particle" style="fill:#FFDD33;" cx="252" cy="130" r="0.9">
    <animate attributeName="opacity" values="0;1;0" dur="2.3s" repeatCount="indefinite" begin="1s" />
    <animate attributeName="transform" attributeType="XML" type="translate" values="0,0; 5,-45; 10,-30" dur="2.3s" repeatCount="indefinite" begin="1s" />
    <animate attributeName="r" values="0.9;0.5;0.9" dur="2.3s" repeatCount="indefinite" begin="1s" />
  </circle>
  <circle class="fire-particle" style="fill:#FF9500;" cx="252" cy="130" r="1.1">
    <animate attributeName="opacity" values="0;1;0" dur="2.1s" repeatCount="indefinite" begin="0.7s" />
    <animate attributeName="transform" attributeType="XML" type="translate" values="0,0; -20,-50; -15,-35" dur="2.1s" repeatCount="indefinite" begin="0.7s" />
    <animate attributeName="r" values="1.1;0.7;1.1" dur="2.1s" repeatCount="indefinite" begin="0.7s" />
  </circle>
</g>
</svg>